<mxfile host="app.diagrams.net" modified="2024-05-18T03:59:20.178Z" agent="Mozilla/5.0 (Macintosh; Intel Mac OS X 10.15; rv:126.0) Gecko/20100101 Firefox/126.0" etag="1P8o9kDmJJrKuXEqcMjB" version="24.4.4" type="github">
  <diagram name="Page-1" id="py46rxaH6P93tPUjjsjk">
    <mxGraphModel dx="794" dy="446" grid="1" gridSize="10" guides="1" tooltips="1" connect="1" arrows="1" fold="1" page="1" pageScale="1" pageWidth="827" pageHeight="1169" math="0" shadow="0">
      <root>
        <mxCell id="0" />
        <mxCell id="1" parent="0" />
        <mxCell id="pwCoVehc74oGvvkLCsKb-1" value="Pool" style="swimlane;childLayout=stackLayout;resizeParent=1;resizeParentMax=0;horizontal=1;startSize=20;horizontalStack=0;html=1;" vertex="1" parent="1">
          <mxGeometry x="170" y="50" width="910" height="380" as="geometry" />
        </mxCell>
        <mxCell id="pwCoVehc74oGvvkLCsKb-2" value="Shopper" style="swimlane;startSize=20;horizontal=0;html=1;" vertex="1" parent="pwCoVehc74oGvvkLCsKb-1">
          <mxGeometry y="20" width="910" height="120" as="geometry" />
        </mxCell>
        <mxCell id="pwCoVehc74oGvvkLCsKb-3" value="Seller" style="swimlane;startSize=20;horizontal=0;html=1;" vertex="1" parent="pwCoVehc74oGvvkLCsKb-1">
          <mxGeometry y="140" width="910" height="120" as="geometry" />
        </mxCell>
        <mxCell id="pwCoVehc74oGvvkLCsKb-4" value="Admin" style="swimlane;startSize=20;horizontal=0;html=1;" vertex="1" parent="pwCoVehc74oGvvkLCsKb-1">
          <mxGeometry y="260" width="910" height="120" as="geometry" />
        </mxCell>
      </root>
    </mxGraphModel>
  </diagram>
</mxfile>
